SplineFontDB: 3.2
FontName: Untitled1
FullName: Untitled1
FamilyName: Untitled1
Weight: Regular
Copyright: Copyright (c) 2023, Simao Nery
UComments: "2023-11-29: Created with FontForge (http://fontforge.org)"
Version: 001.000
ItalicAngle: 0
UnderlinePosition: -100
UnderlineWidth: 50
Ascent: 800
Descent: 200
InvalidEm: 0
LayerCount: 2
Layer: 0 0 "Back" 1
Layer: 1 0 "Fore" 0
XUID: [1021 361 1282447125 13495860]
StyleMap: 0x0000
FSType: 0
OS2Version: 0
OS2_WeightWidthSlopeOnly: 0
OS2_UseTypoMetrics: 1
CreationTime: 1701298503
ModificationTime: 1701446712
OS2TypoAscent: 0
OS2TypoAOffset: 1
OS2TypoDescent: 0
OS2TypoDOffset: 1
OS2TypoLinegap: 90
OS2WinAscent: 0
OS2WinAOffset: 1
OS2WinDescent: 0
OS2WinDOffset: 1
HheadAscent: 0
HheadAOffset: 1
HheadDescent: 0
HheadDOffset: 1
DEI: 91125
Encoding: ISO8859-1
UnicodeInterp: none
NameList: AGL For New Fonts
DisplaySize: -48
AntiAlias: 1
FitToEm: 0
WinInfo: 0 37 14
BeginChars: 256 256

StartChar: Z
Encoding: 90 90 0
Width: 1300
Flags: W
HStem: 156 98<800 1020> 172 82<360.536 572> 266 40<466.759 572 800 855.241> 328 152<492.761 865.239> 504 267<571.5 749> 576 16<781.007 824.993> 582 20<549.005 580.995> 614 48<846.486 879.249> 619 53<504.091 562.866>
VStem: 189 147<311.5 437.151> 549 32<582.003 601.997> 781 44<576.003 591.997> 986 85<411 460>
LayerCount: 2
Fore
SplineSet
789 661 m 1x3078
 796 624 l 1
 714 596 l 1
 704 622 l 1
 789 661 l 1x3078
577 665 m 1
 677 628 l 1
 666 597 l 1
 562 639 l 1
 577 665 l 1
627 328 m 1049
781 584 m 0
 781 588 791 592 803 592 c 0
 815 592 825 588 825 584 c 0
 825 580 815 576 803 576 c 0x3478
 791 576 781 580 781 584 c 0
549 592 m 0
 549 598 556 602 565 602 c 0x3278
 574 602 581 598 581 592 c 0x3478
 581 586 574 582 565 582 c 0x3278
 556 582 549 586 549 592 c 0
336 405 m 0
 336 460 482 504 661 504 c 0x3878
 840 504 986 460 986 405 c 0
 986 350 840 306 661 306 c 0
 482 306 336 350 336 405 c 0
409 404 m 0
 409 446 530 480 679 480 c 0
 828 480 949 446 949 404 c 0
 949 362 828 328 679 328 c 0
 627.342773438 328 579.05078125 332.086914062 538 339.176757812 c 1
 460.643554688 352.537109375 409 376.561523438 409 404 c 0
741 582 m 0x3378
 741 600 773 614 812 614 c 0
 851 614 883 600 883 582 c 0
 883 564 851 550 812 550 c 0
 773 550 741 564 741 582 c 0x3378
499 589 m 0
 499 606 529 619 565 619 c 0x30f8
 601 619 631 606 631 589 c 0
 631 572 601 559 565 559 c 0
 529 559 499 572 499 589 c 0
703 771 m 27x3878
 620 771 599 672 516 672 c 27x30f8
 427 672 433 521 344 521 c 27
 254 521 189 441 189 351 c 27
 189 272 289 254 368 254 c 27
 626 254 771 254 1029 254 c 27
 1084 254 1115 254 1170 254 c 27
 1211 254 1232 299 1232 340 c 27
 1232 429 1071 411 1071 500 c 27
 1071 589 1000 662 911 662 c 27x7178
 819 662 795 771 703 771 c 27x3878
800 266 m 1
 1020 266 l 1
 1020 156 l 1
 800 156 l 1xb078
 800 266 l 1
358 272 m 1
 572 272 l 1
 572 172 l 1
 358 172 l 1x7078
 358 272 l 1
EndSplineSet
EndChar

StartChar: Y
Encoding: 89 89 1
Width: 1300
Flags: W
HStem: 282 19<268 319 392 471> 345 35<240 277 309 358 391 463> 381 86<230.536 429.464> 493 62<301.305 356.695>
VStem: 155.529 60.4707<280 377.19> 240 37<346 380> 268 51<281 307> 300 58<493.983 554.017> 309 49<347 381> 391 72<345 380>
LayerCount: 2
Fore
SplineSet
392 282 m 1xf840
 392 301 l 1
 471 301 l 1
 471 282 l 1
 392 282 l 1xf840
268 281 m 1xfa40
 268 307 l 1
 319 307 l 1
 319 281 l 1
 268 281 l 1xfa40
391 380 m 1
 463 380 l 1
 463 345 l 1
 391 345 l 1
 391 380 l 1
309 381 m 1xf8c0
 358 381 l 1
 358 347 l 1
 309 347 l 1
 309 381 l 1xf8c0
240 380 m 1xfc40
 277 380 l 1
 277 346 l 1
 240 346 l 1
 240 380 l 1xfc40
300 524 m 0xf940
 300 507 313 493 329 493 c 0
 345 493 358 507 358 524 c 0
 358 541 345 555 329 555 c 0
 313 555 300 541 300 524 c 0xf940
216 381 m 1
 216 280 l 1
 515 280 l 1
 515 381 l 1
 216 381 l 1
201 526 m 0
 201 493 259 467 330 467 c 0
 401 467 459 493 459 526 c 0
 459 559 401 585 330 585 c 0
 259 585 201 559 201 526 c 0
558 166 m 1
 350.680664062 242.206054688 l 1
 147.118164062 156.469726562 l 1
 155.529296875 377.190429688 l 1
 11.083984375 544.295898438 l 1
 223.6015625 604.50390625 l 1
 337.892578125 793.517578125 l 1
 460.82421875 610.005859375 l 1
 675.905273438 559.716796875 l 1
 539.364257812 386.09375 l 1
 558 166 l 1
EndSplineSet
EndChar

StartChar: X
Encoding: 88 88 2
Width: 1300
Flags: W
HStem: 92 6<273.488 326.473> 98 1<519 610.55> 429 60<311.926 384.942> 495 23<302.835 317.061 511.799 524.95> 538 23<303.506 317.942 511.799 524.95>
VStem: 282 74<98 259> 301 1<522.78 529.228> 318 5<518.852 533.121> 411 15<516.024 539.256> 510 1<524.218 531.782> 525 3<521.611 534.389>
LayerCount: 2
Fore
SplineSet
519 99 m 27x78e0
 484 99 410 46 445 46 c 27
 512 46 542 98 609 98 c 27
 644 98 554 99 519 99 c 27x78e0
518 368 m 25
 519 98 l 25
 614 98 l 25
 593 458 l 25
 518 368 l 25
272 92 m 27xb8e0
 228 92 132 34 176 34 c 27
 249 34 279 98 352 98 c 27x78e0
 383 98 303 92 272 92 c 27xb8e0
508 352 m 1049
274 422 m 25
 280 200 l 25
 282 98 l 25xbce0
 356 98 l 25x7ce0
 346 328 l 25
 274 422 l 25
379 446 m 25
 430 468 l 25
 414 394 l 25
 379 446 l 25
356 364 m 1
 373 417 l 25
 401 367 l 25
 452 375 l 25
 453 425 l 25
 492 390 l 1
 427 370 l 1
 356 364 l 1
511 528 m 0
 511 534 514 538 518 538 c 0
 522 538 525 534 525 528 c 0
 525 522 522 518 518 518 c 0
 514 518 511 522 511 528 c 0
302 526 m 0x3be0
 302 532 306 536 310 536 c 0
 314 536 318 532 318 526 c 0
 318 520 314 516 310 516 c 0
 306 516 302 520 302 526 c 0x3be0
510 528 m 0
 510 508 514 492 519 492 c 0
 524 492 528 508 528 528 c 0
 528 548 524 564 519 564 c 0
 514 564 510 548 510 528 c 0
301 525 m 0
 301 503 306 486 312 486 c 0
 318 486 323 503 323 525 c 0
 323 547 318 564 312 564 c 0
 306 564 301 547 301 525 c 0
323 429 m 11
 296 429 321 364 348 364 c 27
 429 364 535 376 535 457 c 19
 535 516.671967274 458.323280497 480.536787809 390 453 c 1
 386.512426435 451.594379946 383.191050544 450.146655275 380 448.691785412 c 1
 358.751862308 439.004293862 343.282066927 429 323 429 c 11
426 528 m 0
 426 510 469 495 521 495 c 0
 573 495 616 510 616 528 c 0
 616 546 573 561 521 561 c 0
 469 561 426 546 426 528 c 0
211 526 m 0
 211 506 256 489 311 489 c 0
 366 489 411 506 411 526 c 0
 411 546 366 563 311 563 c 0
 256 563 211 546 211 526 c 0
150 578 m 9
 258 702 l 25
 324 574 l 25
 434 702 l 25
 504 576 l 25
 628 698 l 25
 678 568 l 17
 519.212121212 368 l 1
 506.509090909 352 l 1
 416 238 l 1
 273.611764706 420 l 1
 150 578 l 9
EndSplineSet
EndChar

StartChar: V
Encoding: 86 86 3
Width: 1300
Flags: W
HStem: 17 56<666.506 842.026> 20 60<143.572 377.212> 408 46<517 585> 408 36<431 439>
VStem: 439 78<454 496> 619 46<36 313.667> 619 37<115.333 348>
LayerCount: 2
Fore
SplineSet
613 45 m 0x88
 613 60 665 73 729 73 c 0
 793 73 845 60 845 45 c 0
 845 30 793 17 729 17 c 0
 665 17 613 30 613 45 c 0x88
139 50 m 0
 139 67 193 80 259 80 c 0
 325 80 383 68 383 51 c 0
 383 34 325 20 259 20 c 0x48
 193 20 139 33 139 50 c 0
619 348 m 1x0a
 656 393 l 1x0a
 665 36 l 1
 619 36 l 1x0c
 619 348 l 1x0a
371 350 m 1
 333 395 l 1
 329 77 l 1
 375 65 l 1
 371 350 l 1
475 394 m 1
 475 384 l 1
 549 384 l 1
 549 394 l 1
 475 394 l 1
541 484 m 1
 541 472 l 1
 577 472 l 1
 577 484 l 1
 541 484 l 1
371 486 m 1
 371 470 l 1
 407 470 l 1
 407 486 l 1
 371 486 l 1
431 368 m 1
 585 368 l 1
 585 408 l 1x28
 431 408 l 1x18
 431 368 l 1
517 496 m 1
 517 454 l 1
 607 454 l 1
 607 496 l 1
 517 496 l 1
353 508 m 1
 353 444 l 1
 439 444 l 1x18
 439 508 l 1
 353 508 l 1
227 662 m 25
 361 546 l 25
 493 678 l 25
 617 540 l 25
 767 692 l 25
 783 526 l 25
 537 264 l 25
 505 226 l 25
 191 530 l 25
 227 662 l 25
EndSplineSet
EndChar

StartChar: U
Encoding: 85 85 4
Width: 1300
Flags: W
HStem: 384 120<666.592 765> 504 2<400 414.47> 646 20<304.583 359.417 669.117 726.883> 704 22<305.202 358.798> 714 20<669.117 726.883>
VStem: 286 16<670.571 697.429> 362 18<669.875 698.125> 644 18<674.397 705.603> 734 10<678.167 701.833>
LayerCount: 2
Fore
SplineSet
537 588 m 1x2780
 537 525 l 1
 243 525 l 1
 243 588 l 1
 537 588 l 1x2780
700 458 m 11
 785 458 916 517 916 432 c 27
 916 333 765 384 666 384 c 19xa780
 637.459337803 384 717.09403793 458 700 458 c 11
408 450 m 19
 432.220964861 450 314.086868038 376 346 376 c 11
 267 376 148 341 148 420 c 27
 148 522 306 450 408 450 c 19
400 506 m 11x6780
 516 506 582 506 698 506 c 19
 723.062226399 506 694.296832283 485.814823695 694.296832283 459.999998982 c 3
 694.296832283 438.433481036 664 412.937773601 664 392 c 11
 664 288 790 126 686 126 c 27
 578 126 644 360 536 360 c 27
 407 360 272 31 272 160 c 19
 272 393.588248584 519.669181391 506 400 506 c 11x6780
662 690 m 0
 662 677 678 666 698 666 c 0
 718 666 734 677 734 690 c 0
 734 703 718 714 698 714 c 0x2f80
 678 714 662 703 662 690 c 0
302 684 m 0
 302 673 315 664 332 664 c 0
 349 664 362 673 362 684 c 0
 362 695 349 704 332 704 c 0x3780
 315 704 302 695 302 684 c 0
644 734 m 1x2f80
 744 734 l 1
 744 644 l 1
 644 644 l 1
 644 734 l 1x2f80
286 726 m 1x3780
 380 726 l 1
 380 646 l 1
 286 646 l 1
 286 726 l 1x3780
862 646 m 25
 944 584 l 25
 860 500 l 1049
192 646 m 25
 190 504 l 25x6780
 88 580 l 25
 192 646 l 25
190 646 m 1
 190 504 l 1
 400 504 l 3
 860 504 l 1
 860 646 l 1
 190 646 l 1
EndSplineSet
EndChar

StartChar: T
Encoding: 84 84 5
Width: 1300
Flags: W
HStem: 94 158<376.359 606.047> 264 56<515 551> 268 72<269 305> 384 134<252.934 369.953> 556 64<641.226 720.774> 556 56<267.972 342.028>
VStem: 25 208<537.494 606.487> 269 72<268 340 558.266 609.734> 389 212<545.441 622.023> 479 72<264 320> 639 84<560.169 615.831> 777 126<336 618>
LayerCount: 2
Fore
SplineSet
85 656 m 1051x9330
479 250 m 1xd370
 481 320 l 1
 551 320 l 1
 551 264 l 1
 479 250 l 1xd370
269 268 m 1xb330
 269 340 l 1
 341 340 l 1
 341 254 l 1
 269 268 l 1xb330
639 588 m 0
 639 606 658 620 681 620 c 0
 704 620 723 606 723 588 c 0
 723 570 704 556 681 556 c 0x9b30
 658 556 639 570 639 588 c 0
267 584 m 0
 267 599 284 612 305 612 c 0
 326 612 343 599 343 584 c 0
 343 569 326 556 305 556 c 0x9730
 284 556 267 569 267 584 c 0
171 318 m 0
 171 282 283 252 421 252 c 0
 559 252 671 282 671 318 c 0
 671 354 559 384 421 384 c 0
 283 384 171 354 171 318 c 0
601 588 m 0x93b0
 601 552 640 522 689 522 c 0
 738 522 777 552 777 588 c 0
 777 624 738 654 689 654 c 0
 640 654 601 624 601 588 c 0x93b0
233 580 m 0
 233 546 268 518 311 518 c 0
 354 518 389 546 389 580 c 0
 389 614 354 642 311 642 c 0
 268 642 233 614 233 580 c 0
111 428 m 0
 96.4590469176 483.509602903 25 514.622793595 25 560 c 3
 25 660.770382741 326.918124314 750.964741951 507 762 c 0
 725.589967699 775.394999865 903 612 903 428 c 0
 903 244 726 94 507 94 c 0
 288 94 157.626301259 250.005651688 111 428 c 0
EndSplineSet
EndChar

StartChar: Q
Encoding: 81 81 6
Width: 1300
Flags: W
LayerCount: 2
Fore
SplineSet
275 730 m 9
 329 790 l 1
 369 754 l 25
 415 788 l 25
 443 750 l 25
 519 790 l 1
 485 720 l 17
 413.2265625 721.25390625 309.827148438 685.422851562 275 730 c 9
55 560 m 0
 39 782 188 716 369 716 c 0
 550 716 745 774 717 540 c 0
 704.406079168 434.750804478 562 154 381 154 c 0
 200 154 62.6201171875 454.274414062 55 560 c 0
EndSplineSet
EndChar

StartChar: O
Encoding: 79 79 7
Width: 1300
Flags: W
HStem: 88 512<441.652 567.37> 728 20G<638.574 649.175> 766 20G<518.241 535.848>
VStem: 323 364<235.146 452.849>
LayerCount: 2
Fore
SplineSet
353 490 m 25
 301 644 l 25
 347 646 l 25
 375 776 l 25
 457 670 l 25
 531 786 l 25
 563 654 l 25
 659 748 l 25
 603 634 l 25
 723 682 l 25
 627 552 l 25
 733 594 l 25
 655 486 l 25
 581 586 l 25
 471 608 l 25
 389 556 l 25
 353 490 l 25
323 350 m 0
 323 400.997393393 333.788594649 448.444110066 352.287302702 487.999996132 c 1
 383.846480778 555.483154888 437.845993907 600 499 600 c 0
 596 600 687 476 687 338 c 0
 687 200 608 88 511 88 c 0
 414 88 323 212 323 350 c 0
EndSplineSet
EndChar

StartChar: M
Encoding: 77 77 8
Width: 1300
Flags: W
HStem: 182 96<83.17 227.081>
VStem: 693 16<662 712>
LayerCount: 2
Fore
SplineSet
693 712 m 1
 709 712 l 1
 709 662 l 1
 693 662 l 1
 693 712 l 1
219 182 m 3
 487 182 709 394 709 662 c 3
 709 806.949772593 404.553665861 278 139 278 c 3
 106 278 53 246.877929688 53 210 c 3
 53 179.471679688 165 182 219 182 c 3
EndSplineSet
EndChar

StartChar: L
Encoding: 76 76 9
Width: 1300
Flags: W
HStem: 684 64<359.737 647.251>
VStem: 117 688<304.742 489.733>
LayerCount: 2
Fore
SplineSet
421 748 m 27
 537 748 601 732 717 732 c 27
 796 732 598 684 519 684 c 27
 441 684 397 672 319 672 c 27
 269 672 371 748 421 748 c 27
323 672 m 27
 323 672 323 672 323 672 c 27
117 404 m 0
 117 538.1187873 129.645528347 667.774916205 321 667.774916205 c 3
 360.779622473 667.774916205 408.282322043 676.609867505 465 676 c 0
 651 674 805 552 805 390 c 0
 805 228 634 118 457 118 c 0
 280 118 117 242 117 404 c 0
EndSplineSet
EndChar

StartChar: K
Encoding: 75 75 10
Width: 1300
Flags: W
HStem: 127 230<673.538 807.685> 560 44<642.25 711.377>
VStem: 265 228<212.94 337.233> 621 234<179.863 311.004>
LayerCount: 2
Fore
SplineSet
622 604 m 27
 778 604 828 774 984 774 c 27
 1097 774 887 540 774 540 c 3
 710 540 704 560 658 560 c 27
 640 560 604 604 622 604 c 27
373 389 m 25
 422 376 l 1
 602 522 l 25
 702 364 l 1
 768 354 l 25
 618 608 l 1
 373 389 l 25
621 246 m 0
 621 314 672 357 735 357 c 0
 806.669921875 357 860.254882812 306 855 238 c 0
 849.760742188 170.202148438 804 127 741 127 c 0
 678 127 621 178 621 246 c 0
265 266 m 0
 265 334 316 389 379 389 c 0
 469.341796875 389 513.427734375 331.560546875 493 266 c 0
 470.901367188 195.075195312 436.442382812 141.421875 379 143 c 0
 316.0234375 144.73046875 265 198 265 266 c 0
EndSplineSet
EndChar

StartChar: G
Encoding: 71 71 11
Width: 1300
Flags: W
HStem: -198 994<144 1144>
VStem: 144 1000<-198 796>
LayerCount: 2
Fore
SplineSet
144 796 m 5
 1144 796 l 5
 1144 -198 l 5
 144 -198 l 5
 144 796 l 5
EndSplineSet
EndChar

StartChar: F
Encoding: 70 70 12
Width: 1300
Flags: W
HStem: -2 21G<240 1040> 744 20G<236 1036>
VStem: 865.284 170.716<503.715 678.044> 874 166<112 286.329>
LayerCount: 2
Fore
SplineSet
874 112 m 1xd0
 870.12109375 286.329101562 l 1
 1003.99902344 398.0546875 l 1
 865.284179688 503.71484375 l 1xe0
 861.405273438 678.043945312 l 1
 692.309570312 635.470703125 l 1
 553.594726562 741.130859375 l 1
 481.451171875 582.381835938 l 1
 312.35546875 539.80859375 l 1
 391.489257812 384.42578125 l 1
 319.344726562 225.677734375 l 1
 490.166992188 190.666992188 l 1
 569.30078125 35.28515625 l 1
 703.178710938 147.009765625 l 1
 874 112 l 1xd0
236 760 m 1
 1036 764 l 1xe0
 1036 383.104492188 1040 338.615234375 1040 2 c 1xd0
 240 -2 l 1
 240 331.913085938 236 420.133789062 236 760 c 1
EndSplineSet
EndChar

StartChar: E
Encoding: 69 69 13
Width: 1300
Flags: W
HStem: -204 1002<156 1156>
VStem: 156 1000<-204 798>
LayerCount: 2
Fore
SplineSet
156 798 m 5
 1156 798 l 5
 1156 -204 l 5
 156 -204 l 5
 156 798 l 5
EndSplineSet
EndChar

StartChar: slash
Encoding: 47 47 14
Width: 1300
Flags: W
HStem: 86 664<592.453 861.738>
LayerCount: 2
Fore
SplineSet
91.5 656 m 1048
327.5 420 m 4
 312.958984375 475.509765625 241.5 503.66796875 241.5 552 c 7
 241.5 686.587890625 568.624023438 750.197265625 739.5 750 c 4
 958.5 749.748046875 1135.5 600 1135.5 416 c 4
 1135.5 232 942.5 86 723.5 86 c 4
 504.5 86 374.125976562 242.005859375 327.5 420 c 4
EndSplineSet
EndChar

StartChar: zero
Encoding: 48 48 15
Width: 1300
Flags: W
HStem: 360 144<475.63 580.692> 384 120<666.592 765> 504 2<400 414.47> 646 88<644 744> 646 80<286 380>
VStem: 286 94<646 726> 644 100<644 734>
LayerCount: 2
Fore
SplineSet
700 458 m 15x46
 785 458 916 517 916 432 c 31
 916 333 765 384 666 384 c 23
 637.459337803 384 717.09403793 458 700 458 c 15x46
408 450 m 23
 432.220964861 450 314.086868038 376 346 376 c 15
 267 376 148 341 148 420 c 31
 148 522 306 450 408 450 c 23
400 506 m 15x26
 516 506 582 506 698 506 c 23x26
 723.062226399 506 694.296832283 485.814823695 694.296832283 459.999998982 c 7
 694.296832283 438.433481036 664 412.937773601 664 392 c 15
 664 288 790 126 686 126 c 31
 578 126 644 360 536 360 c 31x86
 407 360 272 31 272 160 c 23
 272 393.588248584 519.669181391 506 400 506 c 15x26
644 734 m 5x16
 739.796651377 734.000001462 705.291742413 733.999999874 744 734 c 5
 744 644 l 5
 644 644 l 5
 644 734 l 5x16
286 726 m 5x0e
 380 726 l 5
 380 646 l 5
 286 646 l 5
 286 726 l 5x0e
862 646 m 29
 944 584 l 29
 860 500 l 1053
192 646 m 29
 190 504 l 29x2e
 88 580 l 29
 192 646 l 29
190 646 m 5
 190 504 l 5
 400 504 l 7
 860 504 l 5
 860 646 l 5
 190 646 l 5
EndSplineSet
EndChar

StartChar: one
Encoding: 49 49 16
Width: 1300
Flags: W
HStem: 17 56<666.506 842.026> 20 60<143.572 377.212>
VStem: 619 46<36 313.667> 619 37<115.333 348>
LayerCount: 2
Fore
SplineSet
613 45 m 0x80
 613 60 665 73 729 73 c 0
 793 73 845 60 845 45 c 0
 845 30 793 17 729 17 c 0
 665 17 613 30 613 45 c 0x80
139 50 m 0
 139 67 193 80 259 80 c 0
 325 80 383 68 383 51 c 0
 383 34 325 20 259 20 c 0x40
 193 20 139 33 139 50 c 0
619 348 m 1x10
 656 393 l 1x10
 665 36 l 1
 619 36 l 1x20
 619 348 l 1x10
371 350 m 1
 333 395 l 1
 329 77 l 1
 375 65 l 1
 371 350 l 1
227 662 m 25
 361 546 l 25
 493 678 l 25
 617 540 l 25
 767 692 l 25
 783 526 l 25
 537 264 l 25
 505 226 l 25
 191 530 l 25
 227 662 l 25
EndSplineSet
EndChar

StartChar: three
Encoding: 51 51 17
Width: 1300
Flags: W
HStem: 96 2<337.031 356> 98 4<285 312.387 522 612.324>
VStem: 280 76<149 259> 519 95<98 218>
LayerCount: 2
Fore
SplineSet
522 102 m 27x70
 600 102 638 154 716 154 c 27
 761 154 659 100 614 100 c 27
 578 100 558 102 522 102 c 27x70
285 102 m 27
 349 102 375 156 439 156 c 27
 479 156 396 96 356 96 c 27xb0
 328 96 313 102 285 102 c 27
609 98 m 27x70
 644 98 554 99 519 99 c 1051
518 368 m 25
 519 98 l 25
 614 98 l 25
 593 458 l 25
 518 368 l 25
508 352 m 1049
274 422 m 25
 280 200 l 25
 282 98 l 25x70
 356 98 l 25xb0
 346 328 l 25
 274 422 l 25
150 578 m 9
 258 702 l 25
 324 574 l 25
 434 702 l 25
 504 576 l 25
 628 698 l 25
 678 568 l 17
 519.212121212 368 l 1
 506.509090909 352 l 1
 416 238 l 1
 273.611764706 420 l 1
 150 578 l 9
EndSplineSet
EndChar

StartChar: four
Encoding: 52 52 18
Width: 1300
Flags: W
LayerCount: 2
Fore
SplineSet
596 166 m 1
 388.680664062 242.206054688 l 1
 185.118164062 156.469726562 l 1
 193.529296875 377.190429688 l 1
 49.083984375 544.295898438 l 1
 261.6015625 604.50390625 l 1
 375.892578125 793.517578125 l 1
 498.82421875 610.005859375 l 1
 713.905273438 559.716796875 l 1
 577.364257812 386.09375 l 1
 596 166 l 1
EndSplineSet
EndChar

StartChar: five
Encoding: 53 53 19
Width: 1300
Flags: W
HStem: 156 98<800 1020> 172 82<360.536 572>
LayerCount: 2
Fore
SplineSet
703 771 m 31x40
 620 771 599 672 516 672 c 31
 427 672 433 521 344 521 c 31
 254 521 189 441 189 351 c 31
 189 272 289 254 368 254 c 31
 626 254 771 254 1029 254 c 31
 1084 254 1115 254 1170 254 c 31
 1211 254 1232 299 1232 340 c 31
 1232 429 1071 411 1071 500 c 31
 1071 589 1000 662 911 662 c 31
 819 662 795 771 703 771 c 31x40
800 266 m 1
 1020 266 l 1
 1020 156 l 1
 800 156 l 1x80
 800 266 l 1
358 272 m 1
 572 272 l 1
 572 172 l 1
 358 172 l 1x40
 358 272 l 1
EndSplineSet
EndChar

StartChar: y
Encoding: 121 121 20
Width: 1300
Flags: W
HStem: 94 668<379.106 643.112>
LayerCount: 2
Fore
SplineSet
85 656 m 1051
479 250 m 1025
111 428 m 0
 96.4590469176 483.509602903 121 526.623046875 121 572 c 3
 121 672.770507812 326.918124314 750.964741951 507 762 c 0
 725.589967699 775.394999865 903 612 903 428 c 0
 903 244 726 94 507 94 c 0
 288 94 157.626301259 250.005651688 111 428 c 0
EndSplineSet
EndChar

StartChar: z
Encoding: 122 122 21
Width: 1300
Flags: W
HStem: 176 250<465 630.113> 426 218<355 449 533 627> 724 20G<449 533>
VStem: 355 272<426 644> 449 84<644 744> 487 169<354.605 413.756>
LayerCount: 2
Fore
SplineSet
565 346 m 27x20
 437 346 237 448 237 320 c 27
 237 228 363 228 455 228 c 27
 518 228 628 346 565 346 c 27x20
487 408 m 3xa4
 487 249 291 235 291 76 c 3
 291 -46 465 176 587 176 c 27
 647 176 656 253 656 313 c 3
 656 374.013671875 653.3125 441.126953125 580 423 c 0
 574.266601562 423 557.264648438 426 551 426 c 3
 443.477738785 426 487 429.334892942 487 408 c 3xa4
449 744 m 1x68
 533 744 l 1
 533 644 l 1
 449 644 l 1
 449 744 l 1x68
355 644 m 1x70
 627 644 l 1x70
 627 426 l 1
 573.61500981 431.731928651 485.133903613 424.280064964 495 426 c 0xb0
 355 426 l 1
 355 644 l 1x70
EndSplineSet
EndChar

StartChar: eacute
Encoding: 233 233 22
Width: 1300
Flags: W
HStem: 286 62<485.806 639> 426 218<355 449 533 627> 724 20G<449 533>
VStem: 355 272<426 644> 449 84<644 744>
LayerCount: 2
Fore
SplineSet
501 348 m 27xe0
 657 348 891 416 891 260 c 27
 891 98 639 286 477 286 c 27
 451 286 475 348 501 348 c 27xe0
511 412 m 3
 623.530437563 412 769 244.895908776 769 122 c 3
 769 -26 551 220 403 220 c 27
 335 220 305 296 305 364 c 3
 305 442.044128965 555.001145079 412 511 412 c 3
449 744 m 1xe8
 533 744 l 1
 533 644 l 1
 449 644 l 1
 449 744 l 1xe8
355 644 m 1xf0
 627 644 l 1
 627 426 l 1
 495 426 l 3
 355 426 l 1
 355 644 l 1xf0
EndSplineSet
EndChar

StartChar: p
Encoding: 112 112 23
Width: 1300
Flags: W
HStem: -2 21G<110 910> 271 128<519.747 614.253> 279 124<304.2 397.8> 503 42<533.688 581.258> 744 20G<106 906>
VStem: 289 124<294.2 387.574> 503 128<287.747 382.253> 723.284 182.716<497.715 672.044> 732 178<106 280.329>
LayerCount: 2
Fore
SplineSet
523 545 m 3x9e
 595 545 617 623 689 623 c 3
 752 623 612 503 549 503 c 27
 529 503 503 545 523 545 c 3x9e
329 411 m 25
 513 545 l 25
 605 405 l 25
 555 399 l 25xde
 521 483 l 25
 507 515 l 25
 377 403 l 25xbe
 329 411 l 25
503 335 m 0
 503 370 532 399 567 399 c 0
 602 399 631 370 631 335 c 0
 631 300 602 271 567 271 c 0
 532 271 503 300 503 335 c 0
289 341 m 0
 289 367.270395806 305.716041075 389.95878281 328.99999892 398.917036708 c 1
 335.850896011 401.552846135 343.270395806 403 351 403 c 0
 385 403 413 375 413 341 c 0
 413 307 385 279 351 279 c 0xbe
 317 279 289 307 289 341 c 0
732 106 m 1x9e80
 728.12109375 280.329101562 l 1
 861.999023438 392.0546875 l 1
 723.284179688 497.71484375 l 1x9f
 719.405273438 672.043945312 l 1
 550.309570312 629.470703125 l 1
 411.594726562 735.130859375 l 1
 339.451171875 576.381835938 l 1
 170.35546875 533.80859375 l 1
 249.489257812 378.42578125 l 1
 177.344726562 219.677734375 l 1
 348.166992188 184.666992188 l 1
 427.30078125 29.28515625 l 1
 561.178710938 141.009765625 l 1
 732 106 l 1x9e80
106 760 m 1
 906 764 l 1x9f
 906 383.104492188 910 338.615234375 910 2 c 1x9e80
 110 -2 l 1
 110 331.913085938 106 420.133789062 106 760 c 1
EndSplineSet
EndChar

StartChar: q
Encoding: 113 113 24
Width: 1300
Flags: W
HStem: -2 21G<66 866> 520 17<383 534> 608 2<588.767 616.641> 744 20G<62 862>
VStem: 214 442<301.875 412.125> 679.284 182.716<497.715 672.044> 688 178<106 280.329>
LayerCount: 2
Fore
SplineSet
366 536 m 19xf8
 283.69921875 536 480.8984375 610 588 610 c 11
 604 610 644 608 628 608 c 19
 562.727539062 608 578.295898438 520 396 520 c 11
 383 520 379 536 366 536 c 19xf8
214 371 m 0
 214.001597372 472.335164873 292.333017817 550.205001263 393.999995888 535.700348584 c 3
 402.513779505 535.700348584 411.191212458 537 420 537 c 0
 534 537 656 435 656 343 c 0
 656 251 564 177 450 177 c 0
 336 177 213.998549781 279.000000011 214 371 c 0
  Spiro
    214 371 o
    242.021 454.852 o
    316.017 514.451 o
    420 537 o
    531.747 507.204 o
    620.215 434.099 o
    656 343 o
    627.979 259.148 o
    553.983 199.549 o
    450 177 o
    338.253 206.796 o
    249.785 279.901 o
    0 0 z
  EndSpiro
688 106 m 1xfa
 684.12109375 280.329101562 l 1
 817.999023438 392.0546875 l 1
 679.284179688 497.71484375 l 1xfc
 675.405273438 672.043945312 l 1
 506.309570312 629.470703125 l 1
 367.594726562 735.130859375 l 1
 295.451171875 576.381835938 l 1
 126.35546875 533.80859375 l 1
 205.489257812 378.42578125 l 1
 133.344726562 219.677734375 l 1
 304.166992188 184.666992188 l 1
 383.30078125 29.28515625 l 1
 517.178710938 141.009765625 l 1
 688 106 l 1xfa
  Spiro
    688 106 v
    684.121 280.329 v
    817.999 392.055 v
    679.284 497.715 v
    675.405 672.044 v
    506.31 629.471 v
    367.595 735.131 v
    295.451 576.382 v
    126.355 533.809 v
    205.489 378.426 v
    133.345 219.678 v
    304.167 184.667 v
    383.301 29.2852 v
    517.179 141.01 v
    0 0 z
  EndSpiro
62 760 m 1
 862 764 l 1xfc
 862 383.104492188 866 338.615234375 866 2 c 1xfa
 66 -2 l 1
 66 331.913085938 62 420.133789062 62 760 c 1
  Spiro
    62 760 v
    862 764 v
    863.035 472.187 o
    864.965 264.307 o
    866 2 v
    66 -2 v
    64.9647 268.21 o
    63.0353 485.823 o
    0 0 z
  EndSpiro
EndSplineSet
EndChar

StartChar: r
Encoding: 114 114 25
Width: 1300
Flags: W
HStem: -2 21G<66 866> 744 20G<62 862>
VStem: 474 74<391.069 512> 510 14<537.175 565.158> 679.284 182.716<497.715 672.044> 688 178<106 280.329>
LayerCount: 2
Fore
SplineSet
548 451 m 27xe0
 548 333 472 219 354 219 c 27
 253 219 474 348 474 449 c 27xe0
 474 500 510 524 510 575 c 27
 510 594 524 548 524 529 c 27xd0
 524 497 548 483 548 451 c 27xe0
688 106 m 1xc4
 684.12109375 280.329101562 l 1
 817.999023438 392.0546875 l 1
 679.284179688 497.71484375 l 1xc8
 675.405273438 672.043945312 l 1
 506.309570312 629.470703125 l 1
 367.594726562 735.130859375 l 1
 295.451171875 576.381835938 l 1
 126.35546875 533.80859375 l 1
 205.489257812 378.42578125 l 1
 133.344726562 219.677734375 l 1
 304.166992188 184.666992188 l 1
 383.30078125 29.28515625 l 1
 517.178710938 141.009765625 l 1
 688 106 l 1xc4
62 760 m 1
 862 764 l 1xc8
 862 383.104492188 866 338.615234375 866 2 c 1xc4
 66 -2 l 1
 66 331.913085938 62 420.133789062 62 760 c 1
688 106 m 1xc4
 684.12109375 280.329101562 l 1
 817.999023438 392.0546875 l 1
 679.284179688 497.71484375 l 1xc8
 675.405273438 672.043945312 l 1
 506.309570312 629.470703125 l 1
 367.594726562 735.130859375 l 1
 295.451171875 576.381835938 l 1
 126.35546875 533.80859375 l 1
 205.489257812 378.42578125 l 1
 133.344726562 219.677734375 l 1
 304.166992188 184.666992188 l 1
 383.30078125 29.28515625 l 1
 517.178710938 141.009765625 l 1
 688 106 l 1xc4
62 760 m 1
 862 764 l 1xc8
 862 383.104492188 866 338.615234375 866 2 c 1xc4
 66 -2 l 1
 66 331.913085938 62 420.133789062 62 760 c 1
688 106 m 1xc4
 684.12109375 280.329101562 l 1
 817.999023438 392.0546875 l 1
 679.284179688 497.71484375 l 1xc8
 675.405273438 672.043945312 l 1
 506.309570312 629.470703125 l 1
 367.594726562 735.130859375 l 1
 295.451171875 576.381835938 l 1
 126.35546875 533.80859375 l 1
 205.489257812 378.42578125 l 1
 133.344726562 219.677734375 l 1
 304.166992188 184.666992188 l 1
 383.30078125 29.28515625 l 1
 517.178710938 141.009765625 l 1
 688 106 l 1xc4
62 760 m 1
 862 764 l 1xc8
 862 383.104492188 866 338.615234375 866 2 c 1xc4
 66 -2 l 1
 66 331.913085938 62 420.133789062 62 760 c 1
688 106 m 1xc4
 684.12109375 280.329101562 l 1
 817.999023438 392.0546875 l 1
 679.284179688 497.71484375 l 1xc8
 675.405273438 672.043945312 l 1
 506.309570312 629.470703125 l 1
 367.594726562 735.130859375 l 1
 295.451171875 576.381835938 l 1
 126.35546875 533.80859375 l 1
 205.489257812 378.42578125 l 1
 133.344726562 219.677734375 l 1
 304.166992188 184.666992188 l 1
 383.30078125 29.28515625 l 1
 517.178710938 141.009765625 l 1
 688 106 l 1xc4
62 760 m 1
 862 764 l 1xc8
 862 383.104492188 866 338.615234375 866 2 c 1xc4
 66 -2 l 1
 66 331.913085938 62 420.133789062 62 760 c 1
688 106 m 1xc4
 684.12109375 280.329101562 l 1
 817.999023438 392.0546875 l 1
 679.284179688 497.71484375 l 1xc8
 675.405273438 672.043945312 l 1
 506.309570312 629.470703125 l 1
 367.594726562 735.130859375 l 1
 295.451171875 576.381835938 l 1
 126.35546875 533.80859375 l 1
 205.489257812 378.42578125 l 1
 133.344726562 219.677734375 l 1
 304.166992188 184.666992188 l 1
 383.30078125 29.28515625 l 1
 517.178710938 141.009765625 l 1
 688 106 l 1xc4
62 760 m 1
 862 764 l 1xc8
 862 383.104492188 866 338.615234375 866 2 c 1xc4
 66 -2 l 1
 66 331.913085938 62 420.133789062 62 760 c 1
EndSplineSet
EndChar

StartChar: t
Encoding: 116 116 26
Width: 1300
Flags: W
HStem: -2 21G<66 866> 744 20G<62 862>
VStem: 352 168<222.045 454.442> 679.284 182.716<497.715 672.044> 688 178<106 280.329>
LayerCount: 2
Fore
SplineSet
378 465 m 25xe0
 332 583 l 25
 386 533 l 25
 406 679 l 25
 438 563 l 25
 504 613 l 25
 486 519 l 25
 562 541 l 25
 500 457 l 25
 378 465 l 25xe0
352 339 m 0
 352 389.593672454 362.554399773 435.187892383 379.271868357 466.999997863 c 1
 394.275302926 495.550423466 414.242801384 513 436 513 c 0
 482 513 520 435 520 339 c 0
 520 243 482 165 436 165 c 0
 390 165 352 243 352 339 c 0
688 106 m 1xe8
 684.12109375 280.329101562 l 1
 817.999023438 392.0546875 l 1
 679.284179688 497.71484375 l 1xf0
 675.405273438 672.043945312 l 1
 506.309570312 629.470703125 l 1
 367.594726562 735.130859375 l 1
 295.451171875 576.381835938 l 1
 126.35546875 533.80859375 l 1
 205.489257812 378.42578125 l 1
 133.344726562 219.677734375 l 1
 304.166992188 184.666992188 l 1
 383.30078125 29.28515625 l 1
 517.178710938 141.009765625 l 1
 688 106 l 1xe8
62 760 m 1
 862 764 l 1xf0
 862 383.104492188 866 338.615234375 866 2 c 1xe8
 66 -2 l 1
 66 331.913085938 62 420.133789062 62 760 c 1
EndSplineSet
EndChar

StartChar: v
Encoding: 118 118 27
Width: 1300
Flags: W
HStem: -2 21G<66 866> 744 20G<62 862>
VStem: 679.284 182.716<497.715 672.044> 688 178<106 280.329>
LayerCount: 2
Fore
SplineSet
352 507 m 25xc0
 402 561 l 25
 416 505 l 25
 464 557 l 25
 448 501 l 25
 536 559 l 25
 492 491 l 25
 352 507 l 25xc0
268 349 m 0
 250.908127765 524.191690406 287.576676065 520.858210736 351.999996623 505.146758303 c 1
 378.038368744 498.796563352 408.610715801 490.424322686 442 491 c 0
 574.795898438 493.290039062 618 565 612 339 c 0
 609.770507812 255.029296875 532 197 438 197 c 0
 344 197 276.15625 265.396484375 268 349 c 0
688 106 m 1xd0
 684.12109375 280.329101562 l 1
 817.999023438 392.0546875 l 1
 679.284179688 497.71484375 l 1xe0
 675.405273438 672.043945312 l 1
 506.309570312 629.470703125 l 1
 367.594726562 735.130859375 l 1
 295.451171875 576.381835938 l 1
 126.35546875 533.80859375 l 1
 205.489257812 378.42578125 l 1
 133.344726562 219.677734375 l 1
 304.166992188 184.666992188 l 1
 383.30078125 29.28515625 l 1
 517.178710938 141.009765625 l 1
 688 106 l 1xd0
62 760 m 1
 862 764 l 1xe0
 862 383.104492188 866 338.615234375 866 2 c 1xd0
 66 -2 l 1
 66 331.913085938 62 420.133789062 62 760 c 1
EndSplineSet
EndChar

StartChar: two
Encoding: 50 50 28
Width: 1300
Flags: W
VStem: 470 60<48 300>
LayerCount: 2
Fore
SplineSet
446 58 m 0
 446 68 524 82 596 82 c 0
 668 82 726.5078125 73.9873046875 726 64 c 0
 725.413085938 52.4619140625 654.584960938 57.2666015625 576 40 c 0
 505.677734375 24.548828125 446 48 446 58 c 0
470 300 m 1
 530 300 l 1
 530 48 l 1
 470 48 l 1
 470 300 l 1
619 348 m 1
 656 393 l 1025
371 350 m 1
 333 395 l 1025
221 712 m 25
 355 596 l 25
 487 728 l 25
 611 590 l 25
 761 742 l 25
 777 576 l 25
 531 314 l 25
 499 276 l 25
 185 580 l 25
 221 712 l 25
EndSplineSet
EndChar

StartChar: W
Encoding: 87 87 29
Width: 1300
Flags: W
HStem: 34 42<263.689 467.051>
VStem: 470 60<48 300>
LayerCount: 2
Fore
SplineSet
261 52 m 0
 261 62 339 76 411 76 c 0
 483 76 541 68 541 58 c 0
 541 48 463 34 391 34 c 0
 319 34 261 42 261 52 c 0
470 300 m 1
 530 300 l 1
 530 48 l 1
 470 48 l 1
 470 300 l 1
221 712 m 25
 355 596 l 25
 487 728 l 25
 611 590 l 25
 761 742 l 25
 777 576 l 25
 531 314 l 25
 499 276 l 25
 185 580 l 25
 221 712 l 25
EndSplineSet
EndChar

StartChar: bar
Encoding: 124 124 30
Width: 1300
Flags: W
HStem: 48 80<412.241 711.51> 738 20G<240.581 268.312 416.812 445.111 607.672 635.692>
LayerCount: 2
Fore
SplineSet
341 88 m 0
 342.3203125 86.0855873402 404.086914063 126.431853843 537 128 c 0
 644.992916054 129.274130949 733 110 733 88 c 0
 733 66 645 48 537 48 c 0
 429 48 328.509526631 106.110803575 341 88 c 0
393 292 m 1
 382 110 l 1
 475 127 l 1
 467.946289062 247.083984375 477.987304688 257.344726562 468 382 c 1
 442.999023438 352 407.353515625 324.28125 393 292 c 1
508 352 m 1049
282 98 m 1049
150 634 m 9
 258 758 l 25
 324 630 l 25
 434 758 l 25
 504 632 l 25
 628 754 l 25
 678 624 l 17
 519.211914062 424 l 1
 506.508789062 408 l 1
 416 294 l 1
 273.611328125 476 l 1
 150 634 l 9
EndSplineSet
EndChar

StartChar: braceright
Encoding: 125 125 31
Width: 1300
Flags: W
HStem: 60 80<182.241 481.51> 738 20G<240.581 268.312 416.812 445.111 607.672 635.692>
VStem: 393 75<176.182 303.905>
LayerCount: 2
Fore
SplineSet
111 100 m 0
 112.3203125 98.0859375 174.086914062 138.431640625 307 140 c 0
 414.993164062 141.274414062 503 122 503 100 c 0
 503 78 415 60 307 60 c 0
 199 60 98.509765625 118.110351562 111 100 c 0
393 292 m 1
 382 110 l 1
 475 127 l 1
 467.946289062 247.083984375 477.987304688 257.344726562 468 382 c 1
 442.999023438 352 407.353515625 324.28125 393 292 c 1
508 352 m 1049
282 98 m 1049
150 634 m 9
 258 758 l 25
 324 630 l 25
 434 758 l 25
 504 632 l 25
 628 754 l 25
 678 624 l 17
 519.211914062 424 l 1
 506.508789062 408 l 1
 416 294 l 1
 273.611328125 476 l 1
 150 634 l 9
EndSplineSet
EndChar

StartChar: six
Encoding: 54 54 32
Width: 1300
Flags: W
HStem: 266 505<458.227 583.514>
LayerCount: 2
Fore
SplineSet
519 771 m 27
 436 771 415 672 332 672 c 27
 243 672 249 521 160 521 c 27
 70 521 5 441 5 351 c 27
 5 272 105 254 184 254 c 27
 442 254 587 254 845 254 c 27
 900 254 931 254 986 254 c 27
 1027 254 1048 299 1048 340 c 27
 1048 429 887 411 887 500 c 27
 887 589 816 662 727 662 c 27
 635 662 611 771 519 771 c 27
380 266 m 1
 688 262 l 1
 690.731445312 212.767578125 701.1015625 126.758789062 700 136 c 1
 392 140 l 1
 380 266 l 1
EndSplineSet
EndChar

